<svg width="28" height="28" viewBox="0 0 28 28" fill="none" xmlns="http://www.w3.org/2000/svg">
<g id="Vector">
<path id="Vector_2" d="M13.9998 11.4545V16.8763H21.5343C21.2034 18.62 20.2106 20.0964 18.7215 21.0891L23.2651 24.6146C25.9124 22.171 27.4397 18.5819 27.4397 14.3183C27.4397 13.3256 27.3506 12.3709 27.1851 11.4547L13.9998 11.4545Z" fill="black"/>
<path id="Vector_3" d="M6.1538 16.6647L5.12904 17.4491L1.50171 20.2745C3.80534 24.8436 8.52681 28 13.9995 28C17.7794 28 20.9484 26.7527 23.2649 24.6146L18.7212 21.0891C17.474 21.9291 15.883 22.4382 13.9995 22.4382C10.3595 22.4382 7.26687 19.9819 6.15952 16.6728L6.1538 16.6647Z" fill="black"/>
<path id="Vector_4" d="M1.50171 7.72545C0.547216 9.60901 0 11.7345 0 13.9999C0 16.2653 0.547216 18.3908 1.50171 20.2744C1.50171 20.287 6.15997 16.6598 6.15997 16.6598C5.87997 15.8198 5.71447 14.929 5.71447 13.9998C5.71447 13.0706 5.87997 12.1797 6.15997 11.3397L1.50171 7.72545Z" fill="black"/>
<path id="Vector_5" d="M13.9998 5.57454C16.0616 5.57454 17.8943 6.28725 19.358 7.66181L23.367 3.65277C20.9361 1.38736 17.7798 0 13.9998 0C8.52709 0 3.80534 3.14363 1.50171 7.72546L6.15983 11.34C7.26703 8.03089 10.3598 5.57454 13.9998 5.57454Z" fill="black"/>
</g>
</svg>
