<svg width="28" height="28" viewBox="0 0 28 28" fill="none" xmlns="http://www.w3.org/2000/svg">
<g id="Vector">
<path id="Vector_2" d="M14 11.4545V16.8763H21.5345C21.2037 18.62 20.2108 20.0964 18.7218 21.0891L23.2654 24.6146C25.9126 22.171 27.4399 18.5819 27.4399 14.3183C27.4399 13.3256 27.3509 12.3709 27.1854 11.4547L14 11.4545Z" fill="#F8FCFB"/>
<path id="Vector_3" d="M6.15355 16.6647L5.1288 17.4491L1.50146 20.2745C3.80509 24.8436 8.52656 28 13.9992 28C17.7792 28 20.9482 26.7527 23.2646 24.6146L18.721 21.0891C17.4737 21.9291 15.8828 22.4382 13.9992 22.4382C10.3593 22.4382 7.26663 19.9819 6.15928 16.6728L6.15355 16.6647Z" fill="#F8FCFB"/>
<path id="Vector_4" d="M1.50171 7.72545C0.547216 9.60901 0 11.7345 0 13.9999C0 16.2653 0.547216 18.3908 1.50171 20.2744C1.50171 20.287 6.15997 16.6598 6.15997 16.6598C5.87997 15.8198 5.71447 14.929 5.71447 13.9998C5.71447 13.0706 5.87997 12.1797 6.15997 11.3397L1.50171 7.72545Z" fill="#F8FCFB"/>
<path id="Vector_5" d="M13.9995 5.57454C16.0614 5.57454 17.8941 6.28725 19.3577 7.66181L23.3668 3.65277C20.9358 1.38736 17.7796 0 13.9995 0C8.52685 0 3.8051 3.14363 1.50146 7.72546L6.15958 11.34C7.26679 8.03089 10.3596 5.57454 13.9995 5.57454Z" fill="#F8FCFB"/>
</g>
</svg>
